<svg width="44" height="38" viewBox="0 0 44 38" fill="none" xmlns="http://www.w3.org/2000/svg">
<path d="M42.5385 9.30769V5C42.5385 2.79086 40.7476 1 38.5385 1H5C2.79086 1 1 2.79086 1 5V9.30769M42.5385 9.30769H1M42.5385 9.30769V33C42.5385 35.2091 40.7476 37 38.5385 37H5C2.79086 37 1 35.2091 1 33V9.30769" stroke="#0C0F03" stroke-width="1.5" stroke-linecap="round" stroke-linejoin="round"/>
<path d="M7.92297 15.8462C7.92297 15.2939 8.37069 14.8462 8.92297 14.8462H12.4614C13.0137 14.8462 13.4614 15.2939 13.4614 15.8462V19.3847C13.4614 19.9369 13.0137 20.3847 12.4614 20.3847H8.92297C8.37069 20.3847 7.92297 19.9369 7.92297 19.3847V15.8462ZM18.9999 15.8462C18.9999 15.2939 19.4476 14.8462 19.9999 14.8462H23.5384C24.0906 14.8462 24.5384 15.2939 24.5384 15.8462V19.3847C24.5384 19.9369 24.0906 20.3847 23.5384 20.3847H19.9999C19.4476 20.3847 18.9999 19.9369 18.9999 19.3847V15.8462ZM30.0768 15.8462C30.0768 15.2939 30.5245 14.8462 31.0768 14.8462H34.6153C35.1676 14.8462 35.6153 15.2939 35.6153 15.8462V19.3847C35.6153 19.9369 35.1676 20.3847 34.6153 20.3847H31.0768C30.5245 20.3847 30.0768 19.9369 30.0768 19.3847V15.8462ZM7.92297 26.9231C7.92297 26.3708 8.37069 25.9231 8.92297 25.9231H12.4614C13.0137 25.9231 13.4614 26.3708 13.4614 26.9231V30.4616C13.4614 31.0139 13.0137 31.4616 12.4614 31.4616H8.92297C8.37069 31.4616 7.92297 31.0139 7.92297 30.4616V26.9231ZM18.9999 26.9231C18.9999 26.3708 19.4476 25.9231 19.9999 25.9231H23.5384C24.0906 25.9231 24.5384 26.3708 24.5384 26.9231V30.4616C24.5384 31.0139 24.0906 31.4616 23.5384 31.4616H19.9999C19.4476 31.4616 18.9999 31.0139 18.9999 30.4616V26.9231ZM30.0768 26.9231C30.0768 26.3708 30.5245 25.9231 31.0768 25.9231H34.6153C35.1676 25.9231 35.6153 26.3708 35.6153 26.9231V30.4616C35.6153 31.0139 35.1676 31.4616 34.6153 31.4616H31.0768C30.5245 31.4616 30.0768 31.0139 30.0768 30.4616V26.9231Z" stroke="#0C0F03" stroke-width="1.5" stroke-linecap="round" stroke-linejoin="round"/>
<path d="M5.09089 5.90931C5.54276 5.90931 5.90907 5.543 5.90907 5.09113C5.90907 4.63926 5.54276 4.27295 5.09089 4.27295C4.63902 4.27295 4.27271 4.63926 4.27271 5.09113C4.27271 5.543 4.63902 5.90931 5.09089 5.90931Z" stroke="#0C0F03" stroke-width="1.5" stroke-linecap="round" stroke-linejoin="round"/>
<path d="M9.18183 5.90931C9.6337 5.90931 10 5.543 10 5.09113C10 4.63926 9.6337 4.27295 9.18183 4.27295C8.72996 4.27295 8.36365 4.63926 8.36365 5.09113C8.36365 5.543 8.72996 5.90931 9.18183 5.90931Z" stroke="#0C0F03" stroke-width="1.5" stroke-linecap="round" stroke-linejoin="round"/>
<path d="M13.2728 5.90931C13.7246 5.90931 14.091 5.543 14.091 5.09113C14.091 4.63926 13.7246 4.27295 13.2728 4.27295C12.8209 4.27295 12.4546 4.63926 12.4546 5.09113C12.4546 5.543 12.8209 5.90931 13.2728 5.90931Z" stroke="#0C0F03" stroke-width="1.5" stroke-linecap="round" stroke-linejoin="round"/>
</svg>
