<svg width="51" height="38" viewBox="0 0 51 38" fill="none" xmlns="http://www.w3.org/2000/svg">
<path d="M47.6364 7.54545H38.4337C37.8367 7.54545 37.2709 7.27874 36.8909 6.81822L32.6909 1.72723C32.3109 1.26671 31.7451 1 31.1481 1H19.9428C19.3458 1 18.78 1.26671 18.4 1.72723L14.2 6.81822C13.82 7.27874 13.2542 7.54545 12.6572 7.54545H3.45455C2.80356 7.54545 2.17924 7.80406 1.71892 8.26437C1.2586 8.72469 1 9.34901 1 10V34.5455C1 35.1964 1.2586 35.8208 1.71892 36.2811C2.17924 36.7414 2.80356 37 3.45455 37H47.6364C48.2873 37 48.9117 36.7414 49.372 36.2811C49.8323 35.8208 50.0909 35.1964 50.0909 34.5455V10C50.0909 9.34901 49.8323 8.72469 49.372 8.26437C48.9117 7.80406 48.2873 7.54545 47.6364 7.54545Z" stroke="#0C0F03" stroke-width="1.5" stroke-miterlimit="10" stroke-linecap="round" stroke-linejoin="round"/>
<path d="M25.5454 32.0907C31.8716 32.0907 37 26.9624 37 20.6362C37 14.31 31.8716 9.18164 25.5454 9.18164C19.2193 9.18164 14.0909 14.31 14.0909 20.6362C14.0909 26.9624 19.2193 32.0907 25.5454 32.0907Z" stroke="#0C0F03" stroke-width="1.5" stroke-miterlimit="10" stroke-linecap="round" stroke-linejoin="round"/>
<path d="M43.5455 14.9093C43.9973 14.9093 44.3637 14.543 44.3637 14.0911C44.3637 13.6393 43.9973 13.2729 43.5455 13.2729C43.0936 13.2729 42.7273 13.6393 42.7273 14.0911C42.7273 14.543 43.0936 14.9093 43.5455 14.9093Z" stroke="#0C0F03" stroke-width="1.5" stroke-miterlimit="10" stroke-linecap="round" stroke-linejoin="round"/>
<path d="M25.5454 25.5452C28.2567 25.5452 30.4545 23.3474 30.4545 20.6361C30.4545 17.9249 28.2567 15.7271 25.5454 15.7271C22.8342 15.7271 20.6364 17.9249 20.6364 20.6361C20.6364 23.3474 22.8342 25.5452 25.5454 25.5452Z" stroke="#0C0F03" stroke-width="1.5" stroke-miterlimit="10" stroke-linecap="round" stroke-linejoin="round"/>
</svg>
