<svg width="47" height="38" viewBox="0 0 47 38" fill="none" xmlns="http://www.w3.org/2000/svg">
<path d="M1 10V33C1 35.2091 2.79086 37 5 37H42C44.2091 37 46 35.2091 46 33V10M1 10H46M1 10V5C1 2.79086 2.79086 1 5 1H42C44.2091 1 46 2.79086 46 5V10" stroke="#0C0F03" stroke-width="1.5" stroke-linecap="round" stroke-linejoin="round"/>
<path d="M32.5001 17.4995L37.7501 23.4995L32.5001 29.4995M14.5001 17.4995L9.25012 23.4995L14.5001 29.4995M26.5001 15.9995L20.5001 30.9995" stroke="#0C0F03" stroke-width="1.5" stroke-linecap="round" stroke-linejoin="round"/>
<path d="M5.50012 6.24951C5.91434 6.24951 6.25012 5.91373 6.25012 5.49951C6.25012 5.0853 5.91434 4.74951 5.50012 4.74951C5.08591 4.74951 4.75012 5.0853 4.75012 5.49951C4.75012 5.91373 5.08591 6.24951 5.50012 6.24951Z" stroke="#0C0F03" stroke-width="1.5" stroke-linecap="round" stroke-linejoin="round"/>
<path d="M10.75 6.24951C11.1642 6.24951 11.5 5.91373 11.5 5.49951C11.5 5.0853 11.1642 4.74951 10.75 4.74951C10.3358 4.74951 10 5.0853 10 5.49951C10 5.91373 10.3358 6.24951 10.75 6.24951Z" stroke="#0C0F03" stroke-width="1.5" stroke-linecap="round" stroke-linejoin="round"/>
<path d="M15.9999 6.24951C16.4141 6.24951 16.7499 5.91373 16.7499 5.49951C16.7499 5.0853 16.4141 4.74951 15.9999 4.74951C15.5857 4.74951 15.2499 5.0853 15.2499 5.49951C15.2499 5.91373 15.5857 6.24951 15.9999 6.24951Z" stroke="#0C0F03" stroke-width="1.5" stroke-linecap="round" stroke-linejoin="round"/>
</svg>
