<svg width="47" height="38" viewBox="0 0 47 38" fill="none" xmlns="http://www.w3.org/2000/svg">
<path d="M46 10V5C46 2.79086 44.2091 1 42 1H5C2.79086 1 1 2.79086 1 5V10M46 10H1M46 10V33C46 35.2091 44.2091 37 42 37H5C2.79086 37 1 35.2091 1 33V10" stroke="#0C0F03" stroke-width="1.5" stroke-linecap="round" stroke-linejoin="round"/>
<path d="M10 17.5005H37M10 23.5005H37M10 29.5005H25" stroke="#0C0F03" stroke-width="1.5" stroke-linecap="round" stroke-linejoin="round"/>
<path d="M5.50012 6.24951C5.91434 6.24951 6.25012 5.91373 6.25012 5.49951C6.25012 5.0853 5.91434 4.74951 5.50012 4.74951C5.08591 4.74951 4.75012 5.0853 4.75012 5.49951C4.75012 5.91373 5.08591 6.24951 5.50012 6.24951Z" stroke="#0C0F03" stroke-width="1.5" stroke-linecap="round" stroke-linejoin="round"/>
<path d="M10.75 6.24951C11.1642 6.24951 11.5 5.91373 11.5 5.49951C11.5 5.0853 11.1642 4.74951 10.75 4.74951C10.3358 4.74951 10 5.0853 10 5.49951C10 5.91373 10.3358 6.24951 10.75 6.24951Z" stroke="#0C0F03" stroke-width="1.5" stroke-linecap="round" stroke-linejoin="round"/>
<path d="M15.9999 6.24951C16.4141 6.24951 16.7499 5.91373 16.7499 5.49951C16.7499 5.0853 16.4141 4.74951 15.9999 4.74951C15.5857 4.74951 15.2499 5.0853 15.2499 5.49951C15.2499 5.91373 15.5857 6.24951 15.9999 6.24951Z" stroke="#0C0F03" stroke-width="1.5" stroke-linecap="round" stroke-linejoin="round"/>
</svg>
