<svg width="47" height="38" viewBox="0 0 47 38" fill="none" xmlns="http://www.w3.org/2000/svg">
<path d="M1.74988 5C1.74988 2.79086 3.54074 1 5.74988 1H41.2499C43.459 1 45.2499 2.79086 45.2499 5V21C45.2499 23.2091 43.459 25 41.2499 25H5.74988C3.54074 25 1.74988 23.2091 1.74988 21V5Z" stroke="#0C0F03" stroke-width="1.5" stroke-miterlimit="10" stroke-linecap="round" stroke-linejoin="round"/>
<path d="M23.4999 18.9995C26.8136 18.9995 29.4999 16.3132 29.4999 12.9995C29.4999 9.6858 26.8136 6.99951 23.4999 6.99951C20.1862 6.99951 17.4999 9.6858 17.4999 12.9995C17.4999 16.3132 20.1862 18.9995 23.4999 18.9995Z" stroke="#0C0F03" stroke-width="1.5" stroke-miterlimit="10" stroke-linecap="round" stroke-linejoin="round"/>
<path d="M1 31.0005H46M1 37.0005H46" stroke="#0C0F03" stroke-width="1.5" stroke-miterlimit="10" stroke-linecap="round" stroke-linejoin="round"/>
<path d="M8.49988 6.99951H11.4999M35.4999 18.9995H38.4999" stroke="#0C0F03" stroke-width="1.5" stroke-miterlimit="10" stroke-linecap="round" stroke-linejoin="round"/>
</svg>
