<svg width="36" height="36" viewBox="0 0 36 36" fill="none" xmlns="http://www.w3.org/2000/svg">
<rect x="0.5" y="0.5" width="35" height="35" rx="17.5" fill="white" stroke="#0C0F03"/>
<path d="M18.0001 11C16.099 11 15.8606 11.0081 15.114 11.0421C14.3689 11.0761 13.86 11.1945 13.4148 11.3675C12.9544 11.5464 12.5641 11.7857 12.1749 12.1749C11.7857 12.564 11.5464 12.9545 11.3675 13.4148C11.1944 13.86 11.0761 14.3689 11.0421 15.114C11.008 15.8606 11 16.099 11 18.0001C11 19.9012 11.008 20.1396 11.0421 20.8863C11.0761 21.6313 11.1944 22.1402 11.3675 22.5854C11.5464 23.0458 11.7858 23.4361 12.1749 23.8253C12.5641 24.2145 12.9544 24.4539 13.4148 24.6328C13.86 24.8058 14.3689 24.9241 15.114 24.9581C15.8606 24.9922 16.099 25.0002 18.0001 25.0002C19.9012 25.0002 20.1396 24.9922 20.8863 24.9581C21.6313 24.9241 22.1402 24.8058 22.5854 24.6328C23.0458 24.4539 23.4361 24.2145 23.8253 23.8253C24.2145 23.4361 24.4539 23.0458 24.6328 22.5854C24.8058 22.1402 24.9241 21.6313 24.9581 20.8863C24.9922 20.1396 25.0002 19.9012 25.0002 18.0001C25.0002 16.099 24.9922 15.8606 24.9581 15.114C24.9241 14.3689 24.8058 13.86 24.6328 13.4148C24.4539 12.9545 24.2145 12.564 23.8253 12.1749C23.4361 11.7857 23.0458 11.5464 22.5854 11.3675C22.1402 11.1945 21.6313 11.0761 20.8863 11.0421C20.1396 11.0081 19.9012 11 18.0001 11ZM18.0001 12.2613C19.8692 12.2613 20.0906 12.2684 20.8288 12.3021C21.5113 12.3332 21.8819 12.4473 22.1286 12.5431C22.4553 12.6701 22.6885 12.8218 22.9335 13.0667C23.1784 13.3117 23.3301 13.5449 23.4571 13.8716C23.553 14.1183 23.667 14.489 23.6981 15.1715C23.7318 15.9096 23.739 16.131 23.739 18.0001C23.739 19.8692 23.7318 20.0906 23.6981 20.8288C23.667 21.5113 23.553 21.8819 23.4571 22.1286C23.3301 22.4553 23.1784 22.6885 22.9335 22.9335C22.6885 23.1784 22.4553 23.3301 22.1286 23.4571C21.8819 23.553 21.5113 23.667 20.8288 23.6981C20.0907 23.7318 19.8694 23.739 18.0001 23.739C16.1309 23.739 15.9095 23.7318 15.1715 23.6981C14.4889 23.667 14.1183 23.553 13.8717 23.4571C13.5449 23.3301 13.3117 23.1784 13.0668 22.9335C12.8218 22.6885 12.6701 22.4553 12.5431 22.1286C12.4473 21.8819 12.3332 21.5113 12.3021 20.8288C12.2684 20.0906 12.2613 19.8692 12.2613 18.0001C12.2613 16.131 12.2684 15.9096 12.3021 15.1715C12.3332 14.4889 12.4473 14.1183 12.5431 13.8717C12.6701 13.5449 12.8218 13.3117 13.0667 13.0668C13.3117 12.8218 13.5449 12.6701 13.8716 12.5431C14.1183 12.4473 14.489 12.3332 15.1715 12.3021C15.9096 12.2684 16.131 12.2613 18.0001 12.2613" fill="#0C0F03"/>
<path d="M18.0007 20.3339C16.712 20.3339 15.6673 19.2892 15.6673 18.0006C15.6673 16.7118 16.712 15.6672 18.0007 15.6672C19.2894 15.6672 20.334 16.7118 20.334 18.0006C20.334 19.2892 19.2894 20.3339 18.0007 20.3339ZM18.0007 14.4059C16.0154 14.4059 14.406 16.0152 14.406 18.0006C14.406 19.9858 16.0154 21.5952 18.0007 21.5952C19.9859 21.5952 21.5953 19.9858 21.5953 18.0006C21.5953 16.0152 19.9859 14.4059 18.0007 14.4059ZM22.5774 14.2639C22.5774 14.7278 22.2013 15.1039 21.7373 15.1039C21.2734 15.1039 20.8973 14.7278 20.8973 14.2639C20.8973 13.7999 21.2734 13.4238 21.7373 13.4238C22.2013 13.4238 22.5774 13.7999 22.5774 14.2639Z" fill="#0C0F03"/>
</svg>
