<svg width="105" height="28" viewBox="0 0 105 28" fill="none" xmlns="http://www.w3.org/2000/svg">
<path d="M39.248 22.288C38.08 22.288 37.032 22.024 36.104 21.496C35.192 20.968 34.472 20.24 33.944 19.312C33.432 18.368 33.176 17.28 33.176 16.048C33.176 14.816 33.432 13.736 33.944 12.808C34.472 11.864 35.192 11.128 36.104 10.6C37.032 10.072 38.08 9.808 39.248 9.808C40.72 9.808 41.952 10.192 42.944 10.96C43.952 11.728 44.6 12.768 44.888 14.08H42.224C42.064 13.424 41.712 12.912 41.168 12.544C40.624 12.176 39.984 11.992 39.248 11.992C38.624 11.992 38.048 12.152 37.52 12.472C36.992 12.776 36.568 13.232 36.248 13.84C35.928 14.432 35.768 15.168 35.768 16.048C35.768 16.928 35.928 17.672 36.248 18.28C36.568 18.872 36.992 19.328 37.52 19.648C38.048 19.968 38.624 20.128 39.248 20.128C39.984 20.128 40.624 19.944 41.168 19.576C41.712 19.208 42.064 18.688 42.224 18.016H44.888C44.616 19.296 43.976 20.328 42.968 21.112C41.96 21.896 40.72 22.288 39.248 22.288ZM49.0871 7.84C48.6071 7.84 48.2071 7.696 47.8871 7.408C47.5831 7.104 47.4311 6.728 47.4311 6.28C47.4311 5.832 47.5831 5.464 47.8871 5.176C48.2071 4.872 48.6071 4.72 49.0871 4.72C49.5671 4.72 49.9591 4.872 50.2631 5.176C50.5831 5.464 50.7431 5.832 50.7431 6.28C50.7431 6.728 50.5831 7.104 50.2631 7.408C49.9591 7.696 49.5671 7.84 49.0871 7.84ZM47.8151 22V10.096H50.3591V22H47.8151ZM53.7174 22V10.096H55.9974L56.2134 12.352C56.6294 11.568 57.2054 10.952 57.9414 10.504C58.6934 10.04 59.5974 9.808 60.6534 9.808V12.472H59.9574C59.2534 12.472 58.6214 12.592 58.0614 12.832C57.5174 13.056 57.0774 13.448 56.7414 14.008C56.4214 14.552 56.2614 15.312 56.2614 16.288V22H53.7174ZM68.1464 22.288C66.9784 22.288 65.9304 22.024 65.0024 21.496C64.0904 20.968 63.3704 20.24 62.8424 19.312C62.3304 18.368 62.0744 17.28 62.0744 16.048C62.0744 14.816 62.3304 13.736 62.8424 12.808C63.3704 11.864 64.0904 11.128 65.0024 10.6C65.9304 10.072 66.9784 9.808 68.1464 9.808C69.6184 9.808 70.8504 10.192 71.8424 10.96C72.8504 11.728 73.4984 12.768 73.7864 14.08H71.1224C70.9624 13.424 70.6104 12.912 70.0664 12.544C69.5224 12.176 68.8824 11.992 68.1464 11.992C67.5224 11.992 66.9464 12.152 66.4184 12.472C65.8904 12.776 65.4664 13.232 65.1464 13.84C64.8264 14.432 64.6664 15.168 64.6664 16.048C64.6664 16.928 64.8264 17.672 65.1464 18.28C65.4664 18.872 65.8904 19.328 66.4184 19.648C66.9464 19.968 67.5224 20.128 68.1464 20.128C68.8824 20.128 69.5224 19.944 70.0664 19.576C70.6104 19.208 70.9624 18.688 71.1224 18.016H73.7864C73.5144 19.296 72.8744 20.328 71.8664 21.112C70.8584 21.896 69.6184 22.288 68.1464 22.288ZM80.9375 22.288C79.4975 22.288 78.3615 21.84 77.5295 20.944C76.7135 20.048 76.3055 18.712 76.3055 16.936V10.096H78.8495V16.672C78.8495 18.976 79.7935 20.128 81.6815 20.128C82.6255 20.128 83.4015 19.792 84.0095 19.12C84.6175 18.448 84.9215 17.488 84.9215 16.24V10.096H87.4655V22H85.2095L85.0175 19.912C84.6495 20.648 84.1055 21.232 83.3855 21.664C82.6815 22.08 81.8655 22.288 80.9375 22.288ZM92.1418 7.84C91.6618 7.84 91.2618 7.696 90.9418 7.408C90.6378 7.104 90.4858 6.728 90.4858 6.28C90.4858 5.832 90.6378 5.464 90.9418 5.176C91.2618 4.872 91.6618 4.72 92.1418 4.72C92.6218 4.72 93.0138 4.872 93.3178 5.176C93.6378 5.464 93.7978 5.832 93.7978 6.28C93.7978 6.728 93.6378 7.104 93.3178 7.408C93.0138 7.696 92.6218 7.84 92.1418 7.84ZM90.8698 22V10.096H93.4138V22H90.8698ZM101.764 22C100.596 22 99.6681 21.72 98.9801 21.16C98.2921 20.584 97.9481 19.568 97.9481 18.112V12.232H95.9081V10.096H97.9481L98.2601 7.072H100.492V10.096H103.852V12.232H100.492V18.112C100.492 18.768 100.628 19.224 100.9 19.48C101.188 19.72 101.676 19.84 102.364 19.84H103.732V22H101.764Z" fill="#0C0F03"/>
<path d="M27.0293 8.93555C27.28 8.92134 27.5 9.12129 27.5 9.40039V23.5029C27.4999 23.7505 27.3158 23.9785 27.0586 24.041L26.9434 24.0566C24.9032 24.1473 20.1669 24.6355 14.7559 27.0898L14.2305 27.334C14.1221 27.3853 13.9986 27.3977 13.8828 27.3721L13.7695 27.334C8.49285 24.8345 3.78717 24.2238 1.48438 24.0801L1.05664 24.0566C0.741183 24.0426 0.500145 23.786 0.5 23.5029V9.40039C0.5 9.15602 0.668636 8.97184 0.878906 8.93945L0.970703 8.93555C3.08132 9.05515 8.19242 9.57635 12.8428 11.8271L13.291 12.0508C13.6801 12.25 14.133 12.2743 14.5381 12.125L14.709 12.0508C18.8794 9.9157 23.5167 9.22658 26.0703 9.00488L27.0293 8.93555ZM14 0.5C16.0435 0.5 17.7002 2.15674 17.7002 4.2002C17.7001 6.24357 16.0434 7.90039 14 7.90039C11.9566 7.90039 10.2999 6.24357 10.2998 4.2002C10.2998 2.15674 11.9565 0.5 14 0.5Z" fill="#C8F031" stroke="#0C0F03"/>
</svg>
