<svg width="47" height="38" viewBox="0 0 47 38" fill="none" xmlns="http://www.w3.org/2000/svg">
<path d="M14.5 23.5C14.5 28 14.5 34 22 37" stroke="#0C0F03" stroke-width="1.5" stroke-miterlimit="10" stroke-linecap="round" stroke-linejoin="round"/>
<path d="M14.5 8.50049V23.5005" stroke="#0C0F03" stroke-width="1.5" stroke-miterlimit="10" stroke-linecap="round" stroke-linejoin="round"/>
<path d="M41.5 20.4995C42.0909 20.4995 42.6761 20.3831 43.2221 20.157C43.768 19.9308 44.2641 19.5994 44.682 19.1815C45.0998 18.7636 45.4313 18.2676 45.6575 17.7216C45.8836 17.1756 46 16.5905 46 15.9995C46 15.4086 45.8836 14.8234 45.6575 14.2774C45.4313 13.7315 45.0998 13.2354 44.682 12.8175C44.2641 12.3997 43.768 12.0682 43.2221 11.8421C42.6761 11.6159 42.0909 11.4995 41.5 11.4995" stroke="#0C0F03" stroke-width="1.5" stroke-miterlimit="10" stroke-linecap="round" stroke-linejoin="round"/>
<path d="M16 23.5H5.5C4.30653 23.5 3.16193 23.0259 2.31802 22.182C1.47411 21.3381 1 20.1935 1 19V13C1 11.8065 1.47411 10.6619 2.31802 9.81802C3.16193 8.9741 4.30653 8.5 5.5 8.5H19C27.0725 8.25649 34.8959 5.64868 41.5 1V31C34.9988 26.1509 27.1104 23.5214 19 23.5H16Z" stroke="#0C0F03" stroke-width="1.5" stroke-miterlimit="10" stroke-linecap="round" stroke-linejoin="round"/>
</svg>
