<svg width="51" height="38" viewBox="0 0 51 38" fill="none" xmlns="http://www.w3.org/2000/svg">
<path d="M7.54545 5.90918H3C1.89543 5.90918 1 6.80461 1 7.90918V31.7274C1 32.8319 1.89543 33.7274 3 33.7274H7.54545M43.5455 5.90918H48.0909C49.1955 5.90918 50.0909 6.80461 50.0909 7.90918V31.7274C50.0909 32.8319 49.1955 33.7274 48.0909 33.7274H43.5455" stroke="#0C0F03" stroke-width="1.5" stroke-miterlimit="10" stroke-linecap="round" stroke-linejoin="round"/>
<path d="M26.9364 22.2725H23.9091C23.2618 22.2725 22.629 22.4645 22.0909 22.8241C21.5527 23.1837 21.1332 23.6948 20.8855 24.2929C20.6378 24.8909 20.573 25.5489 20.6992 26.1838C20.8255 26.8186 21.1372 27.4017 21.5949 27.8594C22.0526 28.3171 22.6358 28.6288 23.2706 28.7551C23.9055 28.8814 24.5635 28.8166 25.1615 28.5689C25.7595 28.3212 26.2706 27.9017 26.6303 27.3635C26.9899 26.8253 27.1818 26.1926 27.1818 25.5453V24.7271L25.5454 9.18164C25.5454 9.18164 32.0909 9.18164 32.0909 15.7271" stroke="#0C0F03" stroke-width="1.5" stroke-miterlimit="10" stroke-linecap="round" stroke-linejoin="round"/>
<path d="M7.54541 3C7.54541 1.89543 8.44084 1 9.54541 1H41.5454C42.65 1 43.5454 1.89543 43.5454 3V35C43.5454 36.1046 42.65 37 41.5454 37H9.54541C8.44084 37 7.54541 36.1046 7.54541 35V3Z" stroke="#0C0F03" stroke-width="1.5" stroke-miterlimit="10" stroke-linecap="round" stroke-linejoin="round"/>
</svg>
