<svg width="44" height="38" viewBox="0 0 44 38" fill="none" xmlns="http://www.w3.org/2000/svg">
<path d="M38.2985 11.4589L42.8922 6.87464L37.0176 1L32.4238 5.58494" stroke="#0C0F03" stroke-width="1.5" stroke-miterlimit="10" stroke-linecap="round" stroke-linejoin="round"/>
<path d="M22.3004 25.2891H33.6819C34.3275 25.2891 34.9334 25.6007 35.3089 26.126L40.8214 33.8372C41.7677 35.1608 40.8215 37.0003 39.1944 37.0003H3.88508C2.25858 37.0003 1.31228 35.162 2.2573 33.8383L7.76214 26.127C8.13754 25.6012 8.74383 25.2891 9.38993 25.2891H16.9169" stroke="#0C0F03" stroke-width="1.5" stroke-miterlimit="10" stroke-linecap="round" stroke-linejoin="round"/>
<path d="M20.2736 17.71L15.6016 28.2552L26.1475 23.5839M20.2736 17.71L32.424 5.58447L38.2986 11.4584L26.1475 23.5839M20.2736 17.71L26.1475 23.5839" stroke="#0C0F03" stroke-width="1.5" stroke-miterlimit="10" stroke-linecap="round" stroke-linejoin="round"/>
</svg>
