<svg width="52" height="51" viewBox="0 0 52 51" fill="none" xmlns="http://www.w3.org/2000/svg">
<circle cx="26.0811" cy="25.5917" r="24" transform="rotate(177 26.0811 25.5917)" fill="#FEE145"/>
<path d="M31.2433 25.8693C30.3946 25.688 29.9585 25.3722 29.9349 24.9218C29.9102 24.451 30.0765 23.6212 30.4338 22.4325C30.812 21.2427 31.4059 19.7644 32.2154 17.9977C32.2068 17.834 32.125 17.6741 31.9699 17.518C31.8149 17.3619 31.6642 17.2877 31.5177 17.2953C30.8901 17.3282 30.0036 18.6268 28.8583 21.1911C27.7338 23.7543 27.2087 25.7421 27.2827 27.1545C27.3567 28.567 27.8065 29.7442 28.6321 30.6862C29.4566 31.6078 30.3501 32.0433 31.3125 31.9929C32.2958 31.9414 33.0455 31.6352 33.5615 31.0745C34.0776 30.5138 34.3104 29.7523 34.26 28.7902C34.1785 27.2345 33.1729 26.2608 31.2433 25.8693Z" fill="#0C0F03"/>
<path d="M19.6729 26.6604C19.0774 26.5069 18.7716 26.2766 18.7556 25.9696C18.7094 25.0893 19.0938 23.8171 19.9087 22.1528C20.7235 20.4885 21.1278 19.5949 21.1213 19.4721C21.0966 19.0012 20.9169 18.7746 20.5822 18.7922C19.7872 18.8338 18.7328 20.1309 17.419 22.6835C16.1042 25.2156 15.4837 27.1879 15.5578 28.6003C15.7026 31.3639 16.9257 32.6853 19.2271 32.5647C20.1685 32.5154 20.9198 32.2399 21.481 31.7384C22.0421 31.2369 22.3012 30.5767 22.2583 29.7579C22.2186 29.0005 21.9316 28.3279 21.3973 27.7401C20.863 27.1523 20.2882 26.7924 19.6729 26.6604Z" fill="#0C0F03"/>
</svg>
